<mxfile host="app.diagrams.net" modified="2022-04-15T09:42:37.682Z" agent="5.0 (Macintosh; Intel Mac OS X 10_15_7) AppleWebKit/537.36 (KHTML, like Gecko) Chrome/99.0.4844.74 Safari/537.36" etag="081Lkd4CyGXhBiK5H3X7" version="17.4.3" type="github" pages="2">
  <diagram id="2wFq1d6wciqyABH6eyaj" name="gamefi">
    <mxGraphModel dx="1186" dy="591" grid="1" gridSize="10" guides="1" tooltips="1" connect="1" arrows="1" fold="1" page="1" pageScale="1" pageWidth="850" pageHeight="1100" math="0" shadow="0">
      <root>
        <mxCell id="0" />
        <mxCell id="1" parent="0" />
        <mxCell id="l5mRDjIrKEeMqlYPJMqX-1" value="MetaMask" style="rounded=1;whiteSpace=wrap;html=1;" parent="1" vertex="1">
          <mxGeometry x="50" y="640" width="120" height="60" as="geometry" />
        </mxCell>
        <mxCell id="l5mRDjIrKEeMqlYPJMqX-2" value="Ronin wallet" style="rounded=1;whiteSpace=wrap;html=1;" parent="1" vertex="1">
          <mxGeometry x="400" y="640" width="120" height="60" as="geometry" />
        </mxCell>
        <mxCell id="l5mRDjIrKEeMqlYPJMqX-3" value="以太坊" style="shape=process;whiteSpace=wrap;html=1;backgroundOutline=1;" parent="1" vertex="1">
          <mxGeometry x="50" y="780" width="120" height="60" as="geometry" />
        </mxCell>
        <mxCell id="l5mRDjIrKEeMqlYPJMqX-4" value="Ronin" style="shape=process;whiteSpace=wrap;html=1;backgroundOutline=1;" parent="1" vertex="1">
          <mxGeometry x="400" y="780" width="120" height="60" as="geometry" />
        </mxCell>
        <mxCell id="l5mRDjIrKEeMqlYPJMqX-5" value="" style="shape=doubleArrow;whiteSpace=wrap;html=1;" parent="1" vertex="1">
          <mxGeometry x="190" y="660" width="190" height="20" as="geometry" />
        </mxCell>
        <mxCell id="l5mRDjIrKEeMqlYPJMqX-6" value="bridge" style="text;html=1;strokeColor=none;fillColor=none;align=center;verticalAlign=middle;whiteSpace=wrap;rounded=0;" parent="1" vertex="1">
          <mxGeometry x="255" y="630" width="60" height="30" as="geometry" />
        </mxCell>
        <mxCell id="l5mRDjIrKEeMqlYPJMqX-7" value="" style="shape=doubleArrow;direction=south;whiteSpace=wrap;html=1;" parent="1" vertex="1">
          <mxGeometry x="90" y="710" width="30" height="60" as="geometry" />
        </mxCell>
        <mxCell id="l5mRDjIrKEeMqlYPJMqX-8" value="" style="shape=doubleArrow;direction=south;whiteSpace=wrap;html=1;" parent="1" vertex="1">
          <mxGeometry x="445" y="710" width="30" height="60" as="geometry" />
        </mxCell>
        <mxCell id="l5mRDjIrKEeMqlYPJMqX-9" value="ETH" style="text;html=1;strokeColor=none;fillColor=none;align=center;verticalAlign=middle;whiteSpace=wrap;rounded=0;" parent="1" vertex="1">
          <mxGeometry x="80" y="600" width="60" height="30" as="geometry" />
        </mxCell>
        <mxCell id="l5mRDjIrKEeMqlYPJMqX-10" value="WETH" style="text;html=1;strokeColor=none;fillColor=none;align=center;verticalAlign=middle;whiteSpace=wrap;rounded=0;" parent="1" vertex="1">
          <mxGeometry x="430" y="600" width="60" height="30" as="geometry" />
        </mxCell>
        <mxCell id="l5mRDjIrKEeMqlYPJMqX-11" value="AXS(NFT)" style="text;html=1;strokeColor=none;fillColor=none;align=center;verticalAlign=middle;whiteSpace=wrap;rounded=0;" parent="1" vertex="1">
          <mxGeometry x="610" y="670" width="60" height="30" as="geometry" />
        </mxCell>
        <mxCell id="l5mRDjIrKEeMqlYPJMqX-12" value="SLP(ERC20)" style="text;html=1;strokeColor=none;fillColor=none;align=center;verticalAlign=middle;whiteSpace=wrap;rounded=0;" parent="1" vertex="1">
          <mxGeometry x="610" y="710" width="60" height="30" as="geometry" />
        </mxCell>
        <mxCell id="l5mRDjIrKEeMqlYPJMqX-13" value="任务奖励" style="text;html=1;strokeColor=none;fillColor=none;align=center;verticalAlign=middle;whiteSpace=wrap;rounded=0;" parent="1" vertex="1">
          <mxGeometry x="680" y="710" width="60" height="30" as="geometry" />
        </mxCell>
      </root>
    </mxGraphModel>
  </diagram>
  <diagram id="9yqZtUDmEBGA_TpwAHp6" name="nft">
    <mxGraphModel dx="-5614" dy="-509" grid="1" gridSize="10" guides="1" tooltips="1" connect="1" arrows="1" fold="1" page="1" pageScale="1" pageWidth="850" pageHeight="1100" math="0" shadow="0">
      <root>
        <mxCell id="0" />
        <mxCell id="1" parent="0" />
        <mxCell id="SBADPoyqRUexrbtkdWdX-2" value="H5应用" style="shape=umlLifeline;perimeter=lifelinePerimeter;whiteSpace=wrap;html=1;container=1;collapsible=0;recursiveResize=0;outlineConnect=0;" vertex="1" parent="1">
          <mxGeometry x="7005" y="1255" width="100" height="313" as="geometry" />
        </mxCell>
        <mxCell id="SBADPoyqRUexrbtkdWdX-3" value="" style="html=1;verticalAlign=bottom;endArrow=open;dashed=1;endSize=8;rounded=0;entryX=0.878;entryY=0.268;entryDx=0;entryDy=0;entryPerimeter=0;" edge="1" parent="SBADPoyqRUexrbtkdWdX-2" target="SBADPoyqRUexrbtkdWdX-5">
          <mxGeometry relative="1" as="geometry">
            <mxPoint x="267.5" y="118" as="sourcePoint" />
            <mxPoint x="58" y="118" as="targetPoint" />
          </mxGeometry>
        </mxCell>
        <mxCell id="SBADPoyqRUexrbtkdWdX-4" value="3、藏品由&quot;待上架&quot;变成&quot;购买&quot;" style="edgeLabel;html=1;align=center;verticalAlign=middle;resizable=0;points=[];" vertex="1" connectable="0" parent="SBADPoyqRUexrbtkdWdX-3">
          <mxGeometry x="0.2352" y="-2" relative="1" as="geometry">
            <mxPoint x="26" y="-7" as="offset" />
          </mxGeometry>
        </mxCell>
        <mxCell id="SBADPoyqRUexrbtkdWdX-5" value="" style="html=1;points=[];perimeter=orthogonalPerimeter;" vertex="1" parent="SBADPoyqRUexrbtkdWdX-2">
          <mxGeometry x="45" y="108" width="10" height="35" as="geometry" />
        </mxCell>
        <mxCell id="SBADPoyqRUexrbtkdWdX-6" value="9、购买按钮变成兑换按钮" style="html=1;verticalAlign=bottom;endArrow=open;dashed=1;endSize=8;rounded=0;" edge="1" parent="SBADPoyqRUexrbtkdWdX-2">
          <mxGeometry relative="1" as="geometry">
            <mxPoint x="265" y="243.00000000000023" as="sourcePoint" />
            <mxPoint x="49" y="245" as="targetPoint" />
          </mxGeometry>
        </mxCell>
        <mxCell id="SBADPoyqRUexrbtkdWdX-7" value="藏品管理后台" style="shape=umlLifeline;perimeter=lifelinePerimeter;whiteSpace=wrap;html=1;container=1;collapsible=0;recursiveResize=0;outlineConnect=0;" vertex="1" parent="1">
          <mxGeometry x="7222" y="1255" width="100" height="314" as="geometry" />
        </mxCell>
        <mxCell id="SBADPoyqRUexrbtkdWdX-8" value="" style="html=1;verticalAlign=bottom;endArrow=open;dashed=1;endSize=8;rounded=0;" edge="1" parent="SBADPoyqRUexrbtkdWdX-7" source="SBADPoyqRUexrbtkdWdX-12">
          <mxGeometry relative="1" as="geometry">
            <mxPoint x="130" y="99" as="sourcePoint" />
            <mxPoint x="50" y="99" as="targetPoint" />
          </mxGeometry>
        </mxCell>
        <mxCell id="SBADPoyqRUexrbtkdWdX-9" value="2、人工填二维码" style="edgeLabel;html=1;align=center;verticalAlign=middle;resizable=0;points=[];" vertex="1" connectable="0" parent="SBADPoyqRUexrbtkdWdX-8">
          <mxGeometry x="0.2352" y="-2" relative="1" as="geometry">
            <mxPoint x="26" y="-7" as="offset" />
          </mxGeometry>
        </mxCell>
        <mxCell id="SBADPoyqRUexrbtkdWdX-10" value="" style="html=1;points=[];perimeter=orthogonalPerimeter;" vertex="1" parent="SBADPoyqRUexrbtkdWdX-7">
          <mxGeometry x="45" y="152" width="10" height="111" as="geometry" />
        </mxCell>
        <mxCell id="SBADPoyqRUexrbtkdWdX-11" value="8、后台点击生成兑换码" style="edgeStyle=orthogonalEdgeStyle;html=1;align=left;spacingLeft=2;endArrow=block;rounded=0;entryX=1;entryY=0;" edge="1" parent="SBADPoyqRUexrbtkdWdX-7">
          <mxGeometry relative="1" as="geometry">
            <mxPoint x="50" y="217" as="sourcePoint" />
            <Array as="points">
              <mxPoint x="80" y="217" />
            </Array>
            <mxPoint x="54.99999999999909" y="237.00000000000023" as="targetPoint" />
          </mxGeometry>
        </mxCell>
        <mxCell id="SBADPoyqRUexrbtkdWdX-12" value="有赞" style="shape=umlLifeline;perimeter=lifelinePerimeter;whiteSpace=wrap;html=1;container=1;collapsible=0;recursiveResize=0;outlineConnect=0;" vertex="1" parent="1">
          <mxGeometry x="7463" y="1255" width="104" height="308" as="geometry" />
        </mxCell>
        <mxCell id="SBADPoyqRUexrbtkdWdX-13" value="" style="html=1;points=[];perimeter=orthogonalPerimeter;" vertex="1" parent="SBADPoyqRUexrbtkdWdX-12">
          <mxGeometry x="40" y="78" width="10" height="40" as="geometry" />
        </mxCell>
        <mxCell id="SBADPoyqRUexrbtkdWdX-14" value="1、人工上架藏品" style="edgeStyle=orthogonalEdgeStyle;html=1;align=left;spacingLeft=2;endArrow=block;rounded=0;entryX=1;entryY=0;" edge="1" parent="SBADPoyqRUexrbtkdWdX-12" target="SBADPoyqRUexrbtkdWdX-13">
          <mxGeometry relative="1" as="geometry">
            <mxPoint x="45" y="58" as="sourcePoint" />
            <Array as="points">
              <mxPoint x="75" y="58" />
            </Array>
          </mxGeometry>
        </mxCell>
        <mxCell id="SBADPoyqRUexrbtkdWdX-15" value="" style="html=1;points=[];perimeter=orthogonalPerimeter;" vertex="1" parent="SBADPoyqRUexrbtkdWdX-12">
          <mxGeometry x="47" y="147" width="10" height="144" as="geometry" />
        </mxCell>
        <mxCell id="SBADPoyqRUexrbtkdWdX-16" value="6、付款" style="edgeStyle=orthogonalEdgeStyle;html=1;align=left;spacingLeft=2;endArrow=block;rounded=0;entryX=1;entryY=0;" edge="1" parent="SBADPoyqRUexrbtkdWdX-12">
          <mxGeometry relative="1" as="geometry">
            <mxPoint x="50" y="173" as="sourcePoint" />
            <Array as="points">
              <mxPoint x="80" y="173" />
            </Array>
            <mxPoint x="55" y="193" as="targetPoint" />
          </mxGeometry>
        </mxCell>
        <mxCell id="SBADPoyqRUexrbtkdWdX-17" value="4、用户点击&quot;购买&quot;按钮" style="html=1;verticalAlign=bottom;endArrow=block;entryX=0;entryY=0;rounded=0;" edge="1" parent="1" source="SBADPoyqRUexrbtkdWdX-2" target="SBADPoyqRUexrbtkdWdX-10">
          <mxGeometry relative="1" as="geometry">
            <mxPoint x="7197" y="1407" as="sourcePoint" />
          </mxGeometry>
        </mxCell>
        <mxCell id="SBADPoyqRUexrbtkdWdX-18" value="5、自动跳到有赞商品详情" style="html=1;verticalAlign=bottom;endArrow=open;dashed=1;endSize=8;exitX=1.104;exitY=0.132;rounded=0;exitDx=0;exitDy=0;exitPerimeter=0;" edge="1" parent="1" source="SBADPoyqRUexrbtkdWdX-10" target="SBADPoyqRUexrbtkdWdX-12">
          <mxGeometry relative="1" as="geometry">
            <mxPoint x="7495" y="1418" as="targetPoint" />
          </mxGeometry>
        </mxCell>
        <mxCell id="SBADPoyqRUexrbtkdWdX-19" value="7、人工看到付款" style="html=1;verticalAlign=bottom;endArrow=open;dashed=1;endSize=8;rounded=0;" edge="1" parent="1" target="SBADPoyqRUexrbtkdWdX-10">
          <mxGeometry relative="1" as="geometry">
            <mxPoint x="7510" y="1458" as="sourcePoint" />
            <mxPoint x="7430" y="1458" as="targetPoint" />
          </mxGeometry>
        </mxCell>
        <mxCell id="SBADPoyqRUexrbtkdWdX-20" value="10、人工发货(兑换码)" style="html=1;verticalAlign=bottom;endArrow=block;rounded=0;" edge="1" parent="1" target="SBADPoyqRUexrbtkdWdX-12">
          <mxGeometry relative="1" as="geometry">
            <mxPoint x="7277.999259259259" y="1505" as="sourcePoint" />
            <mxPoint x="7490.24" y="1504.9999999999998" as="targetPoint" />
          </mxGeometry>
        </mxCell>
        <mxCell id="SBADPoyqRUexrbtkdWdX-21" value="11、用户输入兑换码兑换" style="html=1;verticalAlign=bottom;endArrow=open;dashed=1;endSize=8;rounded=0;" edge="1" parent="1" target="SBADPoyqRUexrbtkdWdX-2">
          <mxGeometry x="0.2916" relative="1" as="geometry">
            <mxPoint x="7510" y="1535" as="sourcePoint" />
            <mxPoint x="7277" y="1535.0000000000002" as="targetPoint" />
            <mxPoint as="offset" />
          </mxGeometry>
        </mxCell>
      </root>
    </mxGraphModel>
  </diagram>
</mxfile>
